<?xml version="1.0" standalone="no"?>
<!DOCTYPE svg PUBLIC "-//W3C//DTD SVG 20010904//EN"
 "http://www.w3.org/TR/2001/REC-SVG-20010904/DTD/svg10.dtd">
<svg version="1.0" xmlns="http://www.w3.org/2000/svg"
 width="300.000000pt" height="300.000000pt" viewBox="0 0 300.000000 300.000000"
 preserveAspectRatio="xMidYMid meet">
<metadata>
Created by potrace 1.11, written by Peter Selinger 2001-2013
</metadata>
<g transform="translate(0.000000,300.000000) scale(0.100000,-0.100000)"
fill="#000000" stroke="none">
<path d="M1323 2985 c-217 -28 -399 -92 -608 -213 -132 -76 -312 -242 -419
-385 -70 -94 -170 -282 -204 -384 -55 -160 -92 -363 -92 -508 0 -206 69 -491
163 -670 183 -350 477 -609 837 -740 220 -79 518 -106 740 -66 199 36 335 83
492 172 479 270 767 761 768 1310 1 520 -286 1021 -734 1284 -192 112 -354
167 -585 199 -131 19 -218 19 -358 1z m452 -86 c508 -102 919 -464 1083 -954
55 -166 66 -242 67 -445 0 -207 -12 -281 -71 -460 -68 -205 -182 -387 -345
-551 -162 -164 -345 -276 -569 -349 -173 -56 -232 -65 -440 -65 -198 0 -270
10 -434 62 -155 48 -343 152 -474 261 -361 300 -554 758 -513 1216 31 345 170
645 410 887 232 233 546 386 863 419 116 12 304 2 423 -21z"/>
<path d="M1309 2889 c-31 -4 -92 -17 -135 -28 -272 -70 -461 -177 -660 -376
-205 -204 -327 -426 -389 -706 -22 -100 -31 -350 -16 -464 70 -531 447 -983
959 -1151 501 -164 1046 -35 1421 338 271 270 413 611 415 993 0 183 -19 293
-86 490 -22 67 -104 225 -151 295 -223 328 -567 545 -957 605 -101 16 -309 18
-401 4z m156 -94 c0 -17 -8 -20 -48 -23 -46 -3 -48 -5 -45 -30 3 -25 6 -26 51
-23 42 2 47 0 47 -18 0 -16 -6 -21 -24 -21 -14 0 -36 -4 -49 -9 -20 -8 -24
-15 -19 -36 4 -25 7 -26 56 -23 45 3 51 1 54 -18 3 -19 -3 -22 -69 -28 -40 -3
-73 -5 -74 -4 -9 9 -25 232 -18 238 7 8 87 18 123 16 8 -1 15 -10 15 -21z m80
17 c6 -4 10 -50 10 -102 l0 -95 43 -3 c24 -2 42 -8 42 -15 1 -30 19 26 35 111
15 77 21 92 36 92 23 0 24 -15 3 -115 -18 -86 -14 -95 38 -95 15 0 31 -7 36
-16 6 -11 16 11 36 78 15 51 29 99 32 106 4 14 14 15 31 4 9 -6 4 -34 -18
-112 -17 -58 -34 -108 -38 -113 -4 -4 -39 0 -77 9 -38 9 -109 19 -159 22 l-90
7 3 115 c4 133 8 144 37 122z m-261 -28 c8 -21 -1 -34 -25 -34 -24 0 -24 -15
1 -110 24 -93 25 -100 1 -100 -16 0 -23 16 -42 95 l-23 95 -33 -6 c-29 -5 -33
-4 -33 15 0 16 11 24 58 36 31 9 62 18 67 20 19 6 23 5 29 -11z m-143 -152
c35 -86 40 -105 28 -113 -21 -13 -23 -12 -80 36 -29 25 -56 45 -61 45 -4 0 3
-25 17 -56 30 -68 30 -74 7 -74 -20 0 -27 13 -73 131 -45 116 -25 130 66 48
30 -29 58 -50 60 -47 3 3 -7 33 -22 67 -23 52 -25 64 -13 71 20 12 22 9 71
-108z m913 67 c33 -26 37 -79 6 -79 -11 0 -20 6 -20 14 0 22 -28 46 -53 46
-47 0 -89 -114 -55 -148 7 -7 25 -12 40 -12 21 0 28 5 28 20 0 11 -7 20 -15
20 -17 0 -20 25 -5 35 10 6 80 -12 80 -21 0 -2 -7 -22 -16 -45 -19 -45 -48
-62 -93 -53 -49 10 -75 47 -74 104 1 50 15 82 54 121 26 26 88 25 123 -2z
m-1086 -140 c50 -96 56 -119 29 -119 -13 1 -117 182 -117 205 0 8 8 15 18 15
11 0 34 -32 70 -101z m1265 43 c66 -44 43 -78 -24 -36 -40 25 -43 26 -56 8
-11 -15 -10 -20 4 -36 9 -10 21 -18 28 -18 22 0 34 -21 23 -40 -11 -17 -14
-16 -51 7 l-40 25 -18 -23 c-10 -13 -19 -26 -18 -29 0 -3 20 -17 44 -32 31
-19 43 -32 39 -43 -3 -8 -10 -15 -16 -15 -7 0 -111 62 -126 75 -2 2 26 48 62
104 74 113 63 109 149 53z m-1470 -54 c2 -7 -13 -29 -35 -48 -39 -35 -40 -35
-20 -53 19 -17 21 -17 51 9 32 27 61 27 61 -1 0 -8 -3 -15 -7 -15 -5 -1 -21
-12 -38 -25 -28 -24 -29 -24 -10 -44 24 -27 28 -27 70 11 32 28 38 29 51 16
14 -14 10 -20 -38 -62 -29 -25 -58 -45 -65 -44 -18 5 -155 181 -146 189 28 27
100 79 110 79 6 0 13 -6 16 -12z m1575 -21 c8 -9 5 -32 -9 -82 -10 -38 -19
-74 -19 -80 0 -5 22 14 49 44 29 33 52 51 59 47 22 -13 12 -31 -67 -116 -64
-69 -82 -83 -92 -72 -11 10 -10 26 6 87 10 41 16 77 14 79 -2 3 -22 -17 -44
-44 -37 -46 -70 -61 -70 -33 0 13 145 183 156 183 3 0 11 -6 17 -13z m-964
-52 c14 -13 26 -33 26 -43 0 -11 7 -25 15 -32 22 -18 18 -35 -11 -55 -20 -13
-23 -19 -14 -28 10 -9 14 -9 17 1 8 20 30 14 37 -10 5 -22 6 -22 23 -5 17 17
17 19 0 31 -18 14 -14 45 7 48 6 0 16 2 21 2 6 1 20 7 31 14 28 15 50 -2 58
-45 3 -18 9 -46 12 -63 7 -32 -3 -38 -25 -17 -8 6 -3 -3 10 -21 27 -37 45 -37
41 1 -4 32 18 45 53 29 16 -8 33 -8 58 0 19 6 43 8 53 4 14 -6 6 -13 -39 -33
-31 -14 -55 -29 -52 -32 2 -4 66 -7 142 -6 101 1 146 -3 168 -13 59 -28 60
-34 13 -58 -40 -22 -55 -23 -240 -24 -109 0 -198 -4 -198 -8 0 -14 40 -52 55
-52 22 0 18 -18 -7 -31 -13 -6 -25 -13 -27 -15 -7 -7 42 -54 56 -54 7 0 13 -4
13 -8 0 -16 -25 -32 -50 -32 -25 -1 -25 -1 10 -30 19 -17 40 -30 47 -30 30 0
5 -35 -30 -41 -16 -4 -13 -12 23 -63 22 -32 39 -60 36 -63 -6 -6 -40 13 -61
33 -28 28 -29 6 -1 -30 34 -45 34 -59 0 -45 -15 5 -29 7 -32 5 -12 -12 24 -69
74 -116 74 -70 141 -100 225 -100 86 0 111 22 111 102 0 69 -15 106 -47 114
-32 8 -82 -12 -96 -38 -7 -14 -14 -17 -21 -10 -11 11 18 82 33 82 5 0 9 5 9
10 0 15 -61 12 -92 -4 -25 -13 -28 -13 -28 1 0 9 8 25 17 35 16 18 15 21 -20
56 -59 60 -73 134 -42 209 21 50 42 72 90 94 56 26 77 24 199 -17 117 -38 155
-37 186 6 21 29 30 25 30 -15 0 -30 -6 -39 -40 -63 -21 -15 -39 -30 -40 -34 0
-3 20 -14 45 -24 37 -14 50 -15 72 -5 33 15 49 1 33 -29 -6 -12 -27 -28 -46
-36 -19 -8 -34 -18 -34 -23 0 -5 14 -21 30 -35 33 -28 86 -42 119 -31 29 9 26
-11 -4 -31 -27 -18 -85 -22 -124 -9 -21 6 -22 5 -16 -17 4 -12 17 -34 29 -47
24 -27 116 -71 148 -71 17 0 18 -2 8 -15 -17 -21 -79 -19 -132 4 -45 19 -106
79 -133 130 -18 36 -17 36 -55 16 -28 -14 -60 -12 -60 5 0 5 9 11 19 15 27 8
45 58 38 106 -3 22 -8 43 -11 46 -3 3 -19 -6 -36 -21 -49 -41 -63 -33 -35 20
21 41 19 71 -10 99 -20 21 -34 25 -79 25 -48 0 -60 -4 -91 -31 -74 -65 -64
-160 23 -207 l42 -23 0 44 c0 31 6 49 20 62 20 18 20 17 20 -14 0 -17 7 -48
15 -67 l15 -36 22 26 c29 32 57 22 38 -13 -12 -24 -12 -23 54 -122 40 -60 47
-140 17 -202 -27 -55 -51 -78 -126 -117 l-60 -31 58 5 c31 2 57 1 57 -3 0 -9
-55 -41 -88 -51 l-27 -9 24 -7 c23 -7 23 -8 6 -21 -17 -12 -15 -13 21 -13 21
0 58 -9 81 -20 46 -20 90 -77 73 -94 -6 -6 -3 -18 11 -32 25 -27 39 -155 14
-134 -18 15 -18 10 -5 -24 11 -30 -4 -45 -19 -19 -9 15 -10 13 -11 -14 0 -37
-15 -44 -25 -13 -3 11 -11 20 -16 20 -14 0 -1 -60 17 -81 13 -15 8 -49 -16
-98 -12 -26 -30 -24 -30 2 0 17 -7 28 -20 32 -31 10 -40 -2 -40 -51 0 -37 -3
-44 -20 -44 -24 0 -25 -11 -5 -50 15 -28 14 -30 -4 -30 -22 0 -61 44 -61 69
-1 28 -24 47 -56 45 -41 -1 -54 -11 -54 -40 0 -13 -4 -24 -10 -24 -16 0 -24
51 -11 85 16 44 14 58 -9 73 -11 7 -20 20 -20 30 0 27 29 62 51 62 10 0 19 5
19 11 0 7 18 8 54 4 51 -7 55 -5 71 19 21 32 13 88 -16 117 -24 24 -55 21 -51
-5 3 -15 -1 -17 -22 -12 -21 5 -26 3 -26 -13 0 -11 5 -23 10 -26 16 -10 12
-28 -5 -21 -52 21 -51 21 -36 3 29 -36 0 -28 -48 13 -61 52 -69 79 -42 148 13
34 18 62 14 82 -5 29 -8 30 -37 24 -68 -15 -146 -67 -146 -98 0 -2 14 -20 30
-38 l30 -33 -25 -8 c-14 -5 -25 -13 -25 -19 0 -6 -13 -8 -34 -4 -40 8 -61 -11
-54 -49 6 -28 -17 -35 -41 -13 -11 11 -12 8 -7 -14 7 -31 4 -33 -26 -17 -20
11 -21 9 -15 -20 8 -37 -6 -41 -40 -9 -17 15 -23 18 -23 7 -1 -9 -8 -5 -21 11
l-21 24 -19 -24 c-12 -16 -18 -35 -15 -52 4 -20 -1 -30 -19 -42 -32 -21 -67
-24 -73 -7 -3 8 0 11 7 7 16 -10 14 17 -3 40 -14 18 -17 18 -43 4 -15 -9 -33
-27 -40 -40 -9 -18 -21 -25 -40 -25 -24 0 -28 -4 -26 -27 2 -34 -11 -36 -32
-5 -11 17 -13 37 -9 70 4 26 11 47 15 47 5 0 9 5 9 10 0 6 -9 10 -19 10 -11 0
-27 8 -36 17 -16 16 -18 16 -27 0 -14 -26 -28 -20 -28 11 0 35 70 97 101 89
10 -3 19 -1 19 3 0 5 3 16 7 26 5 14 2 16 -20 10 -16 -4 -27 -2 -27 4 0 19 46
39 88 37 39 -1 45 -5 57 -34 12 -29 18 -33 53 -33 50 0 120 24 149 52 16 15
23 33 23 60 0 33 -3 38 -23 38 -13 0 -28 -5 -35 -12 -9 -9 -12 -8 -12 6 0 9 5
26 10 37 12 21 1 25 -19 6 -11 -10 -13 -9 -9 3 2 8 18 22 35 30 18 8 34 23 36
32 3 10 19 19 43 23 113 17 145 26 188 52 25 15 46 31 46 35 0 11 -69 30 -86
24 -8 -3 -14 -11 -13 -18 4 -35 -2 -48 -24 -48 -13 0 -28 5 -35 12 -6 6 -33
12 -59 14 -176 9 -197 13 -221 40 -26 30 -39 27 -22 -5 9 -17 8 -21 -4 -21 -8
0 -21 8 -28 19 -16 23 -80 18 -71 -5 7 -19 -15 -44 -32 -38 -7 3 -16 1 -20 -5
-8 -14 -62 -14 -70 -1 -3 6 1 10 9 10 21 0 31 21 15 30 -13 9 -44 -3 -67 -27
-7 -7 -27 -13 -44 -13 -25 0 -29 -3 -25 -20 8 -30 -10 -34 -27 -7 -13 19 -14
29 -3 58 6 18 19 39 27 46 13 11 11 12 -9 13 -14 0 -33 7 -43 17 -17 15 -18
15 -18 -1 0 -10 -6 -16 -12 -13 -7 2 -13 19 -13 37 0 46 43 79 80 62 24 -11
25 -11 19 16 -10 40 -13 43 -35 31 -26 -14 -34 -6 -20 19 10 19 40 29 87 30
14 0 34 -15 53 -39 27 -33 38 -39 69 -39 39 0 126 35 120 47 -2 5 -10 23 -17
41 -7 18 -26 39 -42 47 -35 18 -34 19 -54 -1 -9 -9 -19 -14 -22 -10 -10 9 -3
221 8 258 16 57 11 110 -13 135 -25 27 -38 29 -38 7 0 -8 -4 -12 -10 -9 -5 3
-10 14 -10 23 0 10 -10 22 -22 27 -34 15 -34 50 -1 85 27 29 32 30 110 30 49
0 83 -4 83 -10 0 -5 5 -10 10 -10 6 0 10 13 10 29 0 17 -4 33 -10 36 -5 3 -10
13 -10 21 0 10 12 14 45 14 38 0 45 -3 45 -19 0 -11 -5 -23 -10 -26 -32 -19
62 -65 134 -65 60 0 70 10 67 68 -2 21 8 52 29 89 30 53 33 73 15 116 -10 24
8 21 39 -8z m-760 -76 l-19 -21 74 -69 c66 -61 73 -71 60 -84 -13 -13 -23 -7
-87 50 -70 65 -72 66 -96 50 -25 -17 -46 -13 -46 8 0 6 23 35 52 64 46 47 54
51 67 38 13 -13 12 -17 -5 -36z m1913 -61 c36 -34 27 -119 -11 -105 -11 4 -15
16 -14 38 3 37 -17 55 -53 46 -31 -8 -89 -64 -89 -87 0 -26 26 -43 54 -36 17
4 26 1 30 -10 10 -25 -2 -34 -44 -34 -50 0 -80 30 -80 79 1 94 143 169 207
109z m-1945 -104 c60 -20 108 -39 108 -44 0 -19 -29 -31 -49 -21 -16 9 -23 6
-44 -21 -23 -29 -24 -33 -10 -55 15 -22 12 -53 -5 -53 -7 0 -126 153 -145 187
-10 17 3 43 22 43 9 0 64 -16 123 -36z m2067 -75 c27 -50 29 -58 16 -69 -9 -7
-17 -11 -19 -9 -2 2 -15 23 -30 47 -23 37 -29 41 -46 32 -25 -13 -25 -17 1
-59 11 -18 18 -40 15 -47 -10 -26 -33 -14 -52 26 -21 43 -29 47 -59 24 -19
-14 -19 -15 4 -58 23 -42 22 -66 -2 -66 -16 0 -81 120 -70 130 21 21 199 118
204 112 3 -4 20 -32 38 -63z m-2239 6 c10 -12 10 -19 2 -27 -22 -22 -12 -34
73 -76 47 -24 85 -46 85 -50 0 -4 -4 -13 -9 -21 -7 -11 -26 -4 -96 34 -47 26
-88 45 -89 43 -2 -1 -9 -13 -15 -25 -14 -27 -29 -30 -38 -7 -6 16 54 144 68
144 3 0 12 -7 19 -15z m-50 -193 c0 -11 -11 -24 -25 -30 -14 -7 -25 -20 -25
-31 0 -36 20 -33 57 8 42 48 83 54 120 19 49 -46 14 -138 -53 -138 -43 0 -46
27 -4 41 36 13 48 45 26 67 -15 15 -19 13 -55 -26 -45 -49 -79 -55 -116 -17
-29 28 -31 45 -10 85 16 30 28 38 63 39 15 1 22 -5 22 -17z m2412 -105 c4 -7
8 -16 8 -22 0 -8 -181 -131 -212 -143 -19 -8 -6 47 13 60 20 13 21 17 10 51
-11 31 -17 37 -42 37 -23 0 -29 4 -29 22 0 21 2 21 122 14 78 -4 125 -11 130
-19z m-2498 -62 c-1 -6 -5 -29 -9 -52 -6 -37 -4 -42 16 -48 26 -9 39 8 39 53
0 24 4 32 18 32 27 0 30 -6 21 -53 -8 -45 0 -57 38 -57 18 0 22 8 28 50 5 38
11 50 24 50 10 0 20 -2 23 -5 5 -5 -18 -135 -26 -142 -3 -4 -229 36 -234 42
-2 2 2 36 9 75 11 63 15 71 33 68 12 -2 20 -8 20 -13z m2509 -109 c14 -13 29
-36 33 -50 8 -34 -12 -84 -38 -92 -30 -9 -40 15 -18 44 16 19 17 28 8 48 -13
29 -44 39 -92 30 -48 -9 -72 -39 -60 -74 13 -37 44 -42 44 -8 0 19 5 26 20 26
14 0 21 -9 26 -34 8 -48 0 -56 -55 -56 -40 0 -51 4 -63 23 -57 87 -2 167 113
167 45 0 61 -5 82 -24z m-2335 -237 c2 -90 1 -97 -18 -102 -15 -4 -20 -13 -20
-40 0 -36 12 -52 45 -58 12 -3 22 -15 26 -34 4 -17 21 -71 39 -121 l33 -91
-27 -39 c-46 -68 -31 -92 32 -54 18 11 38 18 43 14 24 -14 -3 -39 -98 -90
l-102 -55 -18 33 c-38 71 -43 88 -31 113 14 31 61 51 91 38 19 -9 26 -4 54 39
17 26 27 48 22 48 -5 0 -55 -16 -111 -35 -56 -19 -104 -32 -107 -29 -11 10
-49 133 -43 139 3 3 13 5 22 5 12 0 21 -14 30 -46 11 -37 17 -44 34 -42 22 3
24 17 11 76 -7 28 -5 32 13 32 16 0 24 -10 33 -40 12 -40 29 -49 58 -31 12 8
13 16 2 51 -7 22 -9 50 -6 60 4 11 5 20 3 20 -27 1 -220 30 -228 35 -5 3 -10
14 -10 24 0 13 30 34 105 72 58 30 105 57 105 60 0 3 -49 3 -110 1 -96 -4
-110 -2 -116 12 -4 9 -3 20 1 24 3 4 50 9 103 12 l97 5 -3 37 c-4 44 4 60 26
56 14 -3 17 -19 20 -99z m2366 31 c5 -5 5 -38 1 -74 -6 -56 -10 -66 -26 -66
-16 0 -19 7 -19 55 0 52 -1 55 -24 55 -23 0 -25 -5 -28 -47 -3 -40 -6 -48 -23
-48 -17 0 -20 7 -20 50 0 49 -1 50 -30 50 -29 0 -30 -2 -33 -52 -2 -42 -7 -53
-20 -53 -34 -1 12 -17 111 -40 89 -20 98 -24 95 -43 -3 -19 -14 -24 -80 -36
-82 -15 -97 -26 -50 -37 92 -21 102 -25 102 -44 0 -24 9 -25 -125 9 -93 23
-110 30 -110 46 0 16 14 24 79 41 44 11 76 23 70 26 -5 3 -35 11 -66 18 l-57
13 5 86 c3 47 7 92 10 100 3 11 25 12 117 6 61 -3 116 -10 121 -15z m-186
-346 c86 -36 119 -111 72 -162 -27 -29 -80 -30 -80 -2 0 13 7 20 19 20 52 0
51 68 -1 93 -60 27 -74 28 -99 9 -22 -19 -23 -20 -5 -46 14 -22 15 -30 5 -42
-10 -13 -15 -12 -36 7 -34 33 -31 80 8 113 35 30 64 32 117 10z m-153 -199
c24 -15 56 -25 80 -25 22 0 57 -3 77 -6 34 -6 36 -9 27 -27 -10 -17 -18 -19
-60 -14 -27 3 -49 4 -49 0 0 -3 10 -22 21 -43 20 -36 21 -70 1 -70 -4 0 -24
29 -45 64 -24 42 -49 72 -74 87 -21 12 -40 24 -42 25 -6 5 8 34 16 34 4 0 26
-11 48 -25z m-1698 -218 c-6 -18 -27 -20 -27 -3 0 9 -4 16 -10 16 -16 0 -11
-28 6 -38 27 -15 53 -3 56 27 3 26 3 26 16 4 28 -50 -62 -76 -95 -27 -16 25
-16 27 1 40 21 15 60 1 53 -19z m-83 -9 c19 -46 128 -153 212 -208 346 -227
774 -244 1129 -45 72 40 217 171 241 217 17 32 23 33 93 12 98 -29 88 -85 -41
-212 -149 -146 -336 -244 -564 -294 -139 -30 -377 -30 -517 0 -239 52 -427
151 -578 303 -68 69 -139 167 -139 192 0 10 26 24 73 40 39 14 73 25 74 26 2
1 9 -14 17 -31z m1482 -4 c-8 -20 11 -44 34 -44 24 0 41 22 30 40 -8 12 -10
12 -16 -3 -6 -17 -34 -24 -34 -9 0 28 49 42 68 19 19 -22 -13 -57 -52 -57 -42
0 -62 21 -46 49 13 25 25 28 16 5z"/>
<path d="M1286 2188 c-50 -114 -50 -121 -15 -161 26 -30 37 -35 60 -30 42 8
95 -47 104 -109 9 -60 -1 -76 -26 -44 -21 26 -86 50 -111 41 -8 -3 -24 -26
-36 -51 -25 -50 -27 -58 -12 -49 6 3 10 -1 10 -9 0 -9 5 -16 11 -16 7 0 9 -9
6 -21 -5 -17 -2 -20 14 -16 14 4 23 -1 29 -16 7 -19 9 -20 15 -6 7 19 41 14
49 -7 3 -8 13 -14 22 -14 10 0 32 -11 50 -25 40 -30 44 -31 37 -4 -5 19 -4 20
15 10 17 -9 19 -8 15 9 -8 29 6 25 44 -12 38 -37 44 -21 12 31 -26 44 -19 48
22 14 l33 -28 -25 44 c-13 24 -30 46 -36 48 -7 3 -13 9 -13 14 0 12 37 11 45
-1 3 -5 15 -15 26 -21 18 -9 19 -8 11 8 -6 10 -27 35 -49 57 -42 43 -45 41 43
20 22 -6 18 0 -25 41 -52 49 -70 86 -32 65 11 -5 29 -10 41 -10 18 0 16 5 -20
42 -47 49 -49 58 -14 58 l25 0 -28 37 c-49 65 -103 107 -171 135 -94 38 -99
37 -126 -24z m136 -78 c38 -41 47 -60 28 -60 -5 0 -20 16 -32 35 -23 35 -42
47 -32 20 10 -24 -26 -32 -43 -9 -8 10 -21 18 -29 16 -23 -5 -16 18 9 28 41
16 60 10 99 -30z"/>
<path d="M940 2211 c-8 -14 -11 -14 -19 -1 -8 12 -13 12 -23 2 -14 -14 -32
-16 -23 -2 3 6 -3 10 -14 10 -15 0 -21 -6 -21 -21 0 -15 4 -19 19 -14 11 3 22
1 26 -5 4 -6 14 -9 22 -6 9 4 21 1 29 -4 9 -9 15 -6 24 9 6 12 17 21 25 21 25
0 17 17 -10 22 -17 4 -29 0 -35 -11z"/>
<path d="M890 2110 c0 -5 4 -10 10 -10 21 0 42 -62 35 -104 -3 -22 -9 -94 -11
-158 l-6 -118 30 0 c31 0 94 -43 108 -74 13 -28 27 -29 49 -7 95 96 99 101 87
113 -8 8 -35 12 -73 10 -75 -3 -96 8 -121 65 -20 44 -20 47 -3 134 10 49 21
92 26 95 5 3 9 18 9 35 l0 29 -70 0 c-40 0 -70 -4 -70 -10z"/>
<path d="M1113 2099 c-28 -18 -31 -24 -22 -41 16 -30 4 -48 -35 -48 l-34 0
-13 -69 c-9 -56 -9 -76 0 -100 22 -52 45 -65 119 -65 75 -1 88 6 122 73 11 22
29 45 40 51 11 6 18 16 14 22 -8 12 25 4 70 -18 36 -17 36 -17 36 1 0 9 -12
20 -27 25 -16 6 -36 15 -45 20 -13 7 -18 7 -18 -1 0 -7 -10 1 -22 17 -13 16
-35 43 -50 59 -16 17 -26 35 -24 40 20 56 20 55 -31 55 -31 0 -59 -8 -80 -21z"/>
<path d="M1823 2074 c-55 -27 -83 -79 -83 -155 0 -55 16 -88 62 -131 40 -37
41 -39 22 -53 -18 -14 -16 -15 26 -10 32 5 51 2 65 -9 20 -14 19 -15 -8 -36
-35 -27 -30 -35 9 -15 40 21 58 19 91 -9 24 -21 28 -32 31 -93 2 -41 -1 -79
-7 -92 -48 -90 -246 -57 -364 61 -27 27 -53 46 -58 43 -5 -4 -12 2 -16 12 -3
10 -13 26 -22 37 -15 17 -16 17 -21 -10 -4 -23 -11 -29 -33 -31 -15 -1 -27 2
-27 7 0 13 -49 60 -62 60 -6 0 -8 -10 -4 -25 9 -34 -9 -31 -31 5 -10 17 -23
28 -30 26 -7 -3 -13 -1 -13 4 0 6 -11 10 -25 10 -14 0 -25 6 -25 13 0 9 -12
14 -32 14 -18 0 -34 5 -36 11 -7 23 -29 11 -81 -44 -38 -40 -74 -66 -126 -90
-100 -46 -134 -45 -182 6 -36 37 -73 53 -73 30 0 -5 4 -10 9 -10 5 0 7 -9 4
-20 -4 -14 4 -25 32 -41 50 -30 31 -42 -39 -24 -41 11 -63 12 -77 5 -23 -13
-26 -35 -3 -26 11 4 18 -1 21 -14 5 -21 26 -25 91 -21 44 3 40 -13 -8 -32 -40
-16 -51 -36 -27 -55 13 -11 29 -6 69 21 33 23 69 19 83 -9 14 -28 50 -16 50
17 0 19 6 25 28 27 19 2 31 11 37 28 11 28 34 33 25 5 -3 -11 -1 -22 5 -26 5
-3 10 2 10 13 0 11 7 25 15 32 13 10 15 9 15 -12 0 -27 26 -68 43 -68 8 0 8 3
-1 12 -14 14 -16 68 -2 68 6 0 10 -4 10 -9 0 -17 49 -68 70 -74 l21 -5 -21 33
c-11 18 -20 37 -20 44 0 19 28 12 35 -8 6 -20 69 -81 84 -81 4 0 6 23 3 50 -5
59 12 68 27 14 10 -37 46 -84 64 -84 5 0 2 11 -7 26 -10 14 -16 39 -14 56 4
41 28 50 28 11 0 -41 13 -58 30 -38 18 21 36 19 106 -14 80 -38 131 -84 144
-129 14 -53 12 -153 -5 -182 -16 -28 -20 -76 -6 -84 5 -3 11 8 15 24 3 17 10
30 16 30 7 0 9 -13 4 -35 -4 -23 -2 -35 5 -35 6 0 11 7 11 15 0 24 19 17 26
-10 7 -28 25 -34 22 -7 -1 9 0 25 0 36 2 15 5 16 17 6 12 -10 18 -9 31 5 20
19 61 13 81 -13 33 -43 36 -120 5 -154 -17 -20 -63 -24 -93 -8 -15 9 -21 7
-25 -5 -3 -8 -16 -15 -29 -15 -13 0 -25 -7 -29 -15 -4 -13 -2 -13 14 -5 24 13
23 13 50 -10 13 -11 34 -20 47 -20 12 0 23 -4 23 -10 0 -5 -6 -10 -12 -10 -7
0 -30 -5 -51 -11 -28 -7 -37 -15 -33 -25 3 -9 -1 -22 -10 -31 -18 -18 -10 -31
9 -14 8 6 22 9 31 5 10 -4 30 4 52 21 40 31 54 27 31 -8 -13 -21 -14 -30 -3
-62 l13 -37 6 31 c5 22 11 29 22 25 11 -5 15 1 15 19 0 14 5 38 10 53 9 23 14
26 43 20 17 -4 34 -11 35 -16 7 -19 20 -10 25 17 3 16 0 34 -8 43 -7 8 -15 31
-17 50 -3 19 -9 44 -13 54 -7 16 -5 18 14 13 22 -5 22 -5 5 14 -22 25 -11 36
21 21 16 -7 25 -8 25 -2 0 6 -11 16 -25 22 -38 17 -30 32 12 25 l38 -7 -30 20
c-17 11 -38 20 -47 20 -9 0 -20 5 -24 11 -7 13 57 8 90 -6 16 -7 17 -6 7 12
-12 23 -69 59 -106 69 -44 11 -27 26 24 22 33 -2 47 1 44 8 -7 20 -76 42 -142
47 -52 4 -68 10 -92 33 -33 32 -31 44 3 20 12 -9 32 -16 43 -16 17 0 17 3 -7
17 -49 31 -42 41 25 38 34 -2 50 -1 35 1 -29 6 -53 28 -44 42 3 6 18 13 33 17
44 10 108 55 133 92 50 73 33 200 -36 263 -13 13 -24 29 -24 36 0 7 -8 10 -18
7 -20 -5 -47 28 -63 76 -7 21 -8 17 -5 -17 l4 -43 -31 7 c-113 24 -163 141
-98 231 36 50 76 67 142 61 70 -7 102 -39 101 -102 0 -25 4 -44 9 -40 5 3 9
16 9 30 0 13 4 24 9 24 17 0 32 -28 43 -84 10 -47 10 -60 -5 -90 -13 -28 -14
-34 -2 -30 8 3 17 14 20 25 9 27 22 23 29 -8 16 -75 101 -163 171 -178 24 -6
19 -1 -24 26 -66 41 -99 95 -81 130 8 13 15 18 19 11 10 -16 91 -28 91 -13 0
6 -10 11 -21 11 -23 0 -119 88 -119 109 0 7 9 9 26 5 24 -6 74 11 74 26 0 4
-24 9 -53 12 -35 3 -64 12 -85 28 -37 28 -37 43 1 50 28 5 67 34 67 49 0 5
-14 2 -31 -6 -44 -22 -74 -19 -175 16 -98 35 -144 38 -191 15z"/>
<path d="M1520 1331 c-50 -29 -80 -40 -129 -45 -75 -7 -81 -11 -55 -31 16 -12
17 -14 3 -15 -9 0 -19 -7 -23 -15 -3 -8 -14 -15 -25 -15 -11 0 -23 -4 -26 -10
-3 -5 2 -10 12 -10 29 0 43 -20 43 -60 0 -47 -21 -76 -74 -100 -95 -43 -168
-39 -185 11 -6 17 -15 28 -21 24 -6 -4 -18 -1 -26 6 -8 6 -17 9 -21 5 -4 -3 2
-12 12 -19 16 -13 16 -14 1 -20 -29 -11 -17 -37 27 -57 39 -18 37 -25 -5 -21
-9 1 -34 10 -55 21 -40 19 -53 18 -53 -6 0 -8 -6 -14 -14 -14 -7 0 -19 -7 -26
-15 -10 -12 -9 -15 7 -15 10 0 24 -5 30 -11 12 -12 108 -16 141 -5 14 5 22 3
22 -4 0 -11 -28 -25 -70 -34 -39 -9 -46 -18 -53 -61 -5 -31 -4 -36 4 -22 8 13
18 17 33 13 18 -4 26 0 35 20 23 51 107 64 125 19 3 -8 15 -15 26 -15 16 0 20
5 16 18 -4 11 6 38 25 67 28 44 32 47 44 32 11 -15 13 -16 19 -2 8 23 26 18
26 -7 0 -13 5 -30 10 -38 8 -12 10 -11 10 7 0 44 29 77 31 36 0 -10 6 -3 13
16 7 19 18 37 26 39 8 3 11 -1 8 -10 -4 -8 -2 -21 3 -29 7 -11 9 -9 9 6 0 39
27 63 80 70 l50 7 -20 25 c-43 55 -10 104 100 144 53 19 60 25 60 48 0 15 -6
35 -12 44 -14 18 -78 67 -87 67 -3 -1 -35 -18 -71 -39z"/>
<path d="M1773 799 c-13 -13 -6 -39 11 -39 6 0 17 4 25 9 12 8 12 12 2 25 -16
19 -23 20 -38 5z"/>
<path d="M516 2185 c18 -28 39 -32 48 -10 4 11 -3 19 -20 25 -40 15 -46 12
-28 -15z"/>
<path d="M2630 1837 c0 -7 4 -18 9 -26 7 -11 13 -10 35 4 35 23 33 32 -9 33
-22 1 -35 -3 -35 -11z"/>
<path d="M315 1299 l-30 -19 27 0 c14 0 34 -3 43 -6 13 -5 16 -2 13 16 -4 31
-16 33 -53 9z"/>
<path d="M401 926 c-11 -13 -7 -40 11 -63 7 -9 16 -9 34 -1 29 14 30 18 3 52
-23 30 -32 32 -48 12z"/>
<path d="M699 641 c9 -15 5 -21 -24 -37 -36 -19 -47 -44 -19 -44 9 0 30 10 47
22 21 15 32 18 35 10 4 -13 32 -17 32 -4 0 4 -14 22 -30 40 -33 36 -57 44 -41
13z"/>
<path d="M2390 625 c-7 -9 -11 -18 -8 -20 3 -3 11 1 18 10 7 9 11 18 8 20 -3
3 -11 -1 -18 -10z"/>
<path d="M2247 598 c-15 -18 -27 -36 -27 -40 0 -3 19 -21 42 -39 l41 -33 39
44 c26 29 35 46 27 49 -7 2 -23 -8 -35 -23 -21 -24 -44 -35 -44 -20 0 3 9 18
21 32 25 32 7 44 -20 13 -27 -31 -47 -26 -22 5 40 51 20 62 -22 12z"/>
<path d="M755 539 c-22 -16 -41 -34 -43 -39 -6 -17 20 -21 37 -6 16 15 19 15
36 -4 15 -16 16 -22 5 -35 -8 -10 -10 -19 -4 -25 6 -6 24 2 47 21 38 31 48 59
22 59 -8 0 -15 -4 -15 -10 0 -15 -26 -12 -40 5 -10 12 -10 18 0 30 26 31 -5
34 -45 4z"/>
<path d="M2180 519 c0 -11 5 -29 11 -41 15 -28 6 -32 -30 -14 -33 18 -61 21
-61 7 0 -12 84 -51 110 -51 25 0 26 25 4 80 -17 43 -34 53 -34 19z"/>
<path d="M871 446 c-17 -18 -31 -37 -31 -44 0 -11 67 -62 82 -62 18 0 6 17
-23 34 -21 13 -28 21 -20 29 7 7 18 5 35 -7 14 -9 30 -16 36 -16 20 0 10 16
-22 35 -18 10 -27 20 -20 23 7 2 24 -4 38 -13 26 -17 41 -15 30 3 -3 6 -21 19
-40 30 l-34 20 -31 -32z"/>
<path d="M2022 424 c-24 -17 -30 -62 -10 -82 21 -21 77 -14 103 13 30 29 31
46 7 68 -23 21 -71 22 -100 1z m76 -16 c16 -16 15 -23 -4 -42 -20 -20 -38 -20
-58 0 -12 12 -13 20 -6 35 12 21 50 25 68 7z"/>
<path d="M1938 382 c-13 -3 -18 -13 -18 -39 l0 -36 -24 22 c-23 22 -64 26 -58
6 20 -69 27 -85 40 -85 10 0 12 7 8 25 -7 27 8 35 18 10 3 -8 15 -15 26 -15
16 0 20 7 21 33 0 30 1 31 11 10 11 -22 38 -32 38 -14 0 5 -10 26 -22 48 -16
26 -29 37 -40 35z"/>
<path d="M1080 350 c0 -11 11 -27 25 -36 14 -9 25 -20 25 -25 0 -16 -30 -9
-47 11 -20 23 -33 26 -33 6 0 -21 48 -48 78 -44 37 4 42 39 7 58 -14 7 -25 17
-25 22 0 13 16 9 30 -7 16 -19 30 -19 30 0 0 18 -31 35 -64 35 -19 0 -26 -5
-26 -20z"/>
<path d="M1200 315 c-6 -14 -14 -36 -20 -50 -8 -20 -6 -25 6 -25 9 0 18 9 21
20 7 28 23 25 23 -4 0 -38 21 -43 47 -10 l23 29 -6 -32 c-5 -25 -3 -33 8 -33
15 0 41 87 32 102 -10 16 -39 7 -61 -19 l-22 -28 -1 31 c0 20 -6 34 -16 38
-23 9 -24 8 -34 -19z"/>
<path d="M1688 313 c-32 -5 -38 -23 -8 -23 13 0 22 -9 26 -27 10 -48 14 -55
27 -50 13 5 13 5 2 55 -5 25 -3 32 9 32 9 0 16 5 16 10 0 10 -20 11 -72 3z"/>
<path d="M1378 259 c-16 -21 -28 -44 -28 -49 0 -13 17 -13 25 0 9 15 65 12 82
-5 28 -29 33 -4 8 46 -31 60 -50 62 -87 8z m48 -16 c-10 -10 -19 5 -10 18 6
11 8 11 12 0 2 -7 1 -15 -2 -18z"/>
<path d="M1518 289 c-2 -7 -1 -30 2 -53 5 -42 23 -52 28 -16 4 25 13 25 45 0
14 -11 33 -20 43 -20 16 0 15 3 -4 23 -16 17 -19 26 -11 34 7 7 9 19 6 27 -8
19 -103 23 -109 5z m82 -19 c0 -5 -14 -10 -31 -10 -17 0 -28 4 -24 10 3 6 17
10 31 10 13 0 24 -4 24 -10z"/>
</g>
</svg>
